<svg
  aria-hidden="true"
  style="position: absolute; width: 0; height: 0; overflow: hidden;"
  version="1.1"
  xmlns="http://www.w3.org/2000/svg"
  xmlns:xlink="http://www.w3.org/1999/xlink"
>
<defs>

<symbol id="icon-logoName" viewBox="0 0 186 32">
      <path
        fill="#ffa837"
        style="fill: var(--color1, #ffa837)"
        d="M12.382 0h-2.752v7.772l-5.434-5.496-1.946 1.968 5.434 5.496h-7.685v2.783h22.013v-2.783h-7.685l5.434-5.496-1.946-1.968-5.434 5.496v-7.772z"
      />
      <path
        fill="#314172"
        style="fill: var(--color2, #314172)"
        d="M0 15.29v16.609h2.752v-13.841l6.879 13.841h2.752l6.879-13.841v13.841h2.752v-16.609h-4.127l-6.879 13.841-6.879-13.841h-4.127z"
      />
      <path
        fill="#314172"
        style="fill: var(--color2, #314172)"
        d="M116.524 23.459c0 1.768-0.264 3.281-0.944 4.538s-1.627 2.224-2.84 2.9c-1.205 0.668-1.977 1.002-4.19 1.002h-6.525v-16.609h5.821c2.785 0 4.941 0.707 6.467 2.122 1.526 1.407 2.212 3.422 2.212 6.047zM113.449 23.459c0-1.878-0.37-3.256-1.363-4.238-0.985-0.99-2.456-1.163-4.311-1.163h-2.994v11.072h3.543c1.040 0 1.995 0 2.825-0.498 0.845-0.507 1.413-1.412 1.654-1.91 0.438-0.904 0.647-2.022 0.647-3.263z"
      />
      <path
        fill="#314172"
        style="fill: var(--color2, #314172)"
        d="M24.649 15.29h10.031v2.782h-7.286v4.173h6.91v2.782h-6.91v4.090h7.537v2.782h-10.282v-16.609z"
      />
      <path
        fill="#314172"
        style="fill: var(--color2, #314172)"
        d="M70.653 31.899v-16.609h10.030v2.782h-7.286v4.173h6.91v2.782h-6.91v4.090h7.537v2.782h-10.282z"
      />
      <path
        fill="#314172"
        style="fill: var(--color2, #314172)"
        d="M83.439 15.29h10.030v2.782h-7.286v4.173h6.909v2.782h-6.909v4.090h7.536v2.782h-10.281v-16.609z"
      />
      <path
        fill="#314172"
        style="fill: var(--color2, #314172)"
        d="M41.812 15.29h-4.113v16.609h2.742v-13.841l6.854 13.841h4.113v-16.609h-2.742v13.84l-6.854-13.84z"
      />
      <path
        fill="#314172"
        style="fill: var(--color2, #314172)"
        d="M67.732 27.998c0.68-1.257 0.944-2.77 0.944-4.538 0-2.625-0.685-4.64-2.211-6.047-1.526-1.415-3.682-2.122-6.467-2.122h-5.821v16.609h6.526c2.213 0 2.985-0.334 4.19-1.002 1.213-0.676 2.16-1.642 2.84-2.9zM64.238 19.221c0.993 0.982 1.363 2.36 1.363 4.238 0 1.242-0.208 2.36-0.646 3.264-0.242 0.498-0.81 1.402-1.654 1.91-0.83 0.499-1.785 0.498-2.825 0.498h-3.543v-11.073h2.994c1.854 0 3.325 0.172 4.311 1.163z"
      />
      <path
        fill="#314172"
        style="fill: var(--color2, #314172)"
        d="M118.501 15.29h2.768v16.609h-2.768v-16.609z"
      />
      <path
        fill="#314172"
        style="fill: var(--color2, #314172)"
        d="M140.778 15.29h2.768v16.609h-2.768v-16.609z"
      />
      <path
        fill="#314172"
        style="fill: var(--color2, #314172)"
        d="M153.222 31.899h-2.742v-13.841h-5.484v-2.768h13.709v2.768h-5.483v13.841z"
      />
      <path
        fill="#314172"
        style="fill: var(--color2, #314172)"
        d="M131.254 29.54c0.861 0.001 1.601 0.003 2.503-0.412 0.662-0.305 1.247-0.577 1.521-1.088v-2.395h-4.098v-2.768h6.83v6.24c-0.738 0.929-1.573 1.49-2.806 2.050-1.505 0.683-2.691 0.733-4.161 0.733-1.704 0-3.158-0.328-4.364-0.985-1.198-0.664-2.115-1.622-2.748-2.875s-0.949-2.756-0.949-4.512c0-2.642 0.697-4.673 2.091-6.093 1.402-1.428 3.512-2.199 5.993-2.142 1.608 0.037 2.708 0.221 4.047 0.996 1.371 0.794 2.143 1.695 2.678 3.069l-2.721 0.831c-0.769-1.589-2.331-2.517-4.246-2.489-2.348 0.035-3.918 1.58-4.617 3.902-0.216 0.713-0.231 1.238-0.25 1.89v0.004l-0.001 0.030c0 1.893 0.453 3.371 1.357 4.432 0.905 1.054 2.167 1.58 3.787 1.58l0.153 0z"
      />
      <path
        fill="#314172"
        style="fill: var(--color2, #314172)"
        d="M177.917 15.29h-2.736v16.609h10.941v-2.768h-8.205v-13.841z"
      />
      <path
        fill-rule="evenodd"
        clip-rule="evenodd"
        fill="#314172"
        style="fill: var(--color2, #314172)"
        d="M157.255 31.899l6.866-16.609h2.745l6.866 16.609h-2.746l-1.716-4.152h-7.552l-1.716 4.152h-2.746zM165.493 18.612l2.632 6.367h-5.263l2.631-6.367z"
      />
      <path
        fill="#314172"
        style="fill: var(--color2, #314172)"
        d="M96.489 29.131h2.768v2.768h-2.768v-2.768z"
      />
</symbol>

<symbol id="icon-logoName-darkMode" viewBox="0 0 186 32">
      <path
        fill="#ffa837"
        style="fill: var(--color1, #ffa837)"
        d="M12.382 0h-2.752v7.772l-5.434-5.496-1.946 1.968 5.434 5.496h-7.685v2.783h22.013v-2.783h-7.685l5.434-5.496-1.946-1.968-5.434 5.496v-7.772z"
      />
      <path
        fill="#fff"
        style="fill: var(--color2, #fff)"
        d="M0 15.29v16.609h2.752v-13.841l6.879 13.841h2.752l6.879-13.841v13.841h2.752v-16.609h-4.127l-6.879 13.841-6.879-13.841h-4.127z"
      />
      <path
        fill="#fff"
        style="fill: var(--color2, #fff)"
        d="M116.524 23.459c0 1.768-0.264 3.281-0.944 4.538s-1.627 2.224-2.84 2.9c-1.205 0.668-1.977 1.002-4.19 1.002h-6.525v-16.609h5.821c2.785 0 4.941 0.707 6.467 2.122 1.526 1.407 2.212 3.422 2.212 6.047zM113.449 23.459c0-1.878-0.37-3.256-1.363-4.238-0.985-0.99-2.456-1.163-4.311-1.163h-2.994v11.072h3.543c1.040 0 1.995 0 2.825-0.498 0.845-0.507 1.413-1.412 1.654-1.91 0.438-0.904 0.647-2.022 0.647-3.263z"
      />
      <path
        fill="#fff"
        style="fill: var(--color2, #fff)"
        d="M24.649 15.29h10.031v2.782h-7.286v4.173h6.91v2.782h-6.91v4.090h7.537v2.782h-10.282v-16.609z"
      />
      <path
        fill="#fff"
        style="fill: var(--color2, #fff)"
        d="M70.653 31.899v-16.609h10.030v2.782h-7.286v4.173h6.91v2.782h-6.91v4.090h7.537v2.782h-10.282z"
      />
      <path
        fill="#fff"
        style="fill: var(--color2, #fff)"
        d="M83.439 15.29h10.030v2.782h-7.286v4.173h6.909v2.782h-6.909v4.090h7.536v2.782h-10.281v-16.609z"
      />
      <path
        fill="#fff"
        style="fill: var(--color2, #fff)"
        d="M41.812 15.29h-4.113v16.609h2.742v-13.841l6.854 13.841h4.113v-16.609h-2.742v13.84l-6.854-13.84z"
      />
      <path
        fill="#fff"
        style="fill: var(--color2, #fff)"
        d="M67.732 27.998c0.68-1.257 0.944-2.77 0.944-4.538 0-2.625-0.685-4.64-2.211-6.047-1.526-1.415-3.682-2.122-6.467-2.122h-5.821v16.609h6.526c2.213 0 2.985-0.334 4.19-1.002 1.213-0.676 2.16-1.642 2.84-2.9zM64.238 19.221c0.993 0.982 1.363 2.36 1.363 4.238 0 1.242-0.208 2.36-0.646 3.264-0.242 0.498-0.81 1.402-1.654 1.91-0.83 0.499-1.785 0.498-2.825 0.498h-3.543v-11.073h2.994c1.854 0 3.325 0.172 4.311 1.163z"
      />
      <path
        fill="#fff"
        style="fill: var(--color2, #fff)"
        d="M118.501 15.29h2.768v16.609h-2.768v-16.609z"
      />
      <path
        fill="#fff"
        style="fill: var(--color2, #fff)"
        d="M140.778 15.29h2.768v16.609h-2.768v-16.609z"
      />
      <path
        fill="#fff"
        style="fill: var(--color2, #fff)"
        d="M153.222 31.899h-2.742v-13.841h-5.484v-2.768h13.709v2.768h-5.483v13.841z"
      />
      <path
        fill="#fff"
        style="fill: var(--color2, #fff)"
        d="M131.254 29.54c0.861 0.001 1.601 0.003 2.503-0.412 0.662-0.305 1.247-0.577 1.521-1.088v-2.395h-4.098v-2.768h6.83v6.24c-0.738 0.929-1.573 1.49-2.806 2.050-1.505 0.683-2.691 0.733-4.161 0.733-1.704 0-3.158-0.328-4.364-0.985-1.198-0.664-2.115-1.622-2.748-2.875s-0.949-2.756-0.949-4.512c0-2.642 0.697-4.673 2.091-6.093 1.402-1.428 3.512-2.199 5.993-2.142 1.608 0.037 2.708 0.221 4.047 0.996 1.371 0.794 2.143 1.695 2.678 3.069l-2.721 0.831c-0.769-1.589-2.331-2.517-4.246-2.489-2.348 0.035-3.918 1.58-4.617 3.902-0.216 0.713-0.231 1.238-0.25 1.89v0.004l-0.001 0.030c0 1.893 0.453 3.371 1.357 4.432 0.905 1.054 2.167 1.58 3.787 1.58l0.153 0z"
      />
      <path
        fill="#fff"
        style="fill: var(--color2, #fff)"
        d="M177.917 15.29h-2.736v16.609h10.941v-2.768h-8.205v-13.841z"
      />
      <path
        fill-rule="evenodd"
        clip-rule="evenodd"
        fill="#fff"
        style="fill: var(--color2, #fff)"
        d="M157.255 31.899l6.866-16.609h2.745l6.866 16.609h-2.746l-1.716-4.152h-7.552l-1.716 4.152h-2.746zM165.493 18.612l2.632 6.367h-5.263l2.631-6.367z"
      />
      <path
        fill="#fff"
        style="fill: var(--color2, #fff)"
        d="M96.489 29.131h2.768v2.768h-2.768v-2.768z"
      />
</symbol>

<symbol id="icon-Logo" viewBox="0 0 56 32">
<path
        d="M31.678 0h-7.039v19.861l-13.902-14.044-4.978 5.028 13.902 14.044h-19.66v7.111h56.316v-7.111h-19.66l13.902-14.044-4.978-5.028-13.902 14.044v-19.861z"
      />
</symbol>

<symbol id="icon-rowDown" viewBox="0 0 56 32">
<path
        d="M1.308 7.512c-0.807-0.791-1.307-1.893-1.307-3.111s0.5-2.32 1.306-3.11l0.001-0.001c0.813-0.797 1.927-1.289 3.157-1.289s2.344 0.492 3.158 1.29l-0.001-0.001 23.536 23.198c1.742 1.718 1.742 4.504 0 6.222-1.744 1.72-4.572 1.72-6.316 0l-23.532-23.198z"
      />
<path
        d="M48.378 1.29c0.813-0.797 1.927-1.289 3.157-1.289s2.344 0.492 3.158 1.29l-0.001-0.001c1.744 1.718 1.744 4.504 0 6.222l-23.534 23.2c-1.744 1.718-4.572 1.718-6.316 0-0.808-0.791-1.309-1.894-1.309-3.113s0.501-2.322 1.308-3.112l0.001-0.001 23.538-23.196z"
      />
</symbol>

<symbol id="icon-rowUp" viewBox="0 0 56 32">
<path
        fill="#fff"
        style="fill: var(--color3, #fff)"
        d="M54.692 24.486c1.744 1.72 1.744 4.506 0 6.224-1.744 1.72-4.57 1.72-6.314 0l-23.536-23.198c-0.807-0.791-1.308-1.893-1.308-3.112s0.501-2.321 1.307-3.111l0.001-0.001c0.813-0.798 1.928-1.29 3.158-1.29s2.345 0.492 3.159 1.291l-0.001-0.001 23.534 23.2z"
      />
<path
        fill="#fff"
        style="fill: var(--color3, #fff)"
        d="M7.622 30.71c-1.744 1.72-4.57 1.72-6.314 0-0.807-0.791-1.307-1.893-1.307-3.111s0.5-2.32 1.306-3.11l0.001-0.001 23.532-23.2c0.813-0.798 1.928-1.29 3.158-1.29s2.345 0.492 3.159 1.291l-0.001-0.001c1.742 1.72 1.742 4.506 0 6.224l-23.536 23.2z"
      />
</symbol>

<symbol id="mendee-digital" viewBox="0 0 56 32">
<path
        d="M96.9374 1H76.0627V59.9618L34.8368 18.2695L20.076 33.1972L61.3008 74.8888H3V96H170V74.8888H111.699L152.924 33.1972L138.163 18.2695L96.9374 59.9613V1Z"
        fill="#FFA837"
      />
<path
        d="M3 117V243H23.8747V138L76.0627 243H96.9374L149.125 138V243H170V117H138.688L86.5005 222L34.3125 117H3Z"
        fill="#314172"
      />
<path
        fill-rule="evenodd"
        clip-rule="evenodd"
        d="M887 178.972C887 192.385 885.002 203.862 879.838 213.4C874.675 222.939 867.491 230.272 858.291 235.399C849.149 240.466 843.29 243 826.502 243H777V117H821.163C842.293 117 858.646 122.366 870.221 133.096C881.796 143.768 887 159.06 887 178.972ZM863.67 178.972C863.67 164.723 860.868 154.272 853.33 146.82C845.854 139.308 834.696 138 820.629 138H797.91V222H824.791C832.676 222.001 839.923 222.002 846.218 218.22C852.629 214.37 856.935 207.51 858.767 203.73C862.09 196.874 863.67 188.391 863.67 178.972Z"
        fill="#314172"
      />
<path
        d="M190 117H266.097V138.106H210.822V169.764H263.244V190.87H210.822V221.894H268V243H190V117Z"
        fill="#314172"
      />
<path
        d="M539 243V117H615.096V138.106H559.823V169.764H612.243V190.87H559.823V221.894H617V243H539Z"
        fill="#314172"
      />
<path
        d="M636 117H712.096V138.106H656.823V169.764H709.243V190.87H656.823V221.894H714V243H636V117Z"
        fill="#314172"
      />
<path
        d="M320.2 117H289V243H309.8V137.999L361.8 243H393V117H372.199V221.999L320.2 117Z"
        fill="#314172"
      />
<path
        fill-rule="evenodd"
        clip-rule="evenodd"
        d="M516.839 213.4C522.002 203.861 524 192.385 524 178.972C524 159.059 518.801 143.768 507.225 133.096C495.65 122.365 479.293 117 458.163 117H414V243H463.506C480.295 243 486.149 240.466 495.291 235.399C504.491 230.272 511.675 222.939 516.839 213.4ZM490.334 146.82C497.868 154.272 500.675 164.723 500.675 178.972C500.675 188.391 499.094 196.874 495.772 203.73C493.935 207.51 489.629 214.37 483.222 218.22C476.927 222.003 469.68 222.001 461.791 222H434.913V138H457.629C471.696 138 482.854 139.308 490.334 146.82Z"
        fill="#314172"
      />
<path d="M902 117H923V243H902V117Z" fill="#314172" />
<path d="M1071 117H1092V243H1071V117Z" fill="#314172" />
<path d="M1165.4 243H1144.6V138H1103V117H1207V138H1165.4V243Z" fill="#314172" />
<path
        d="M998.743 225.104C1005.27 225.115 1010.89 225.124 1017.73 221.975C1022.76 219.665 1027.2 217.595 1029.27 213.721V195.549H998.182V174.552H1050V221.888C1044.4 228.932 1038.06 233.193 1028.71 237.44C1017.3 242.624 1008.3 243 997.15 243C984.227 243 973.195 240.509 964.045 235.528C954.953 230.489 948.002 223.22 943.2 213.721C938.399 204.222 936 192.812 936 179.49C936 159.45 941.287 144.043 951.865 133.269C962.501 122.438 978.504 116.588 997.323 117.023C1009.53 117.305 1017.87 118.702 1028.03 124.581C1038.43 130.602 1044.28 137.44 1048.34 147.865L1027.7 154.172C1021.87 142.118 1010.02 135.074 995.485 135.289C977.671 135.554 965.767 147.278 960.458 164.894C958.825 170.3 958.705 174.283 958.562 179.236V179.262L958.553 179.49C958.553 193.854 961.985 205.062 968.847 213.113C975.709 221.106 985.286 225.102 997.577 225.102L998.743 225.104Z"
        fill="#314172"
      />
<path d="M1352.75 117H1332V243H1415V222H1352.75V117Z" fill="#314172" />
<path
        fill-rule="evenodd"
        clip-rule="evenodd"
        d="M1196 243L1248.09 117H1268.91L1321 243H1300.17L1287.15 211.5H1229.85L1216.83 243H1196ZM1258.5 142.199L1278.46 190.5H1238.54L1258.5 142.199Z"
        fill="#314172"
      />
<path d="M735 222H756V243H735V222Z" fill="#314172" />
</symbol>
<symbol id="icon-close" viewBox="0 0 32 32">
<path
        d="M26.667 7.303l-1.97-1.97-7.808 7.808-7.808-7.808-1.97 1.97 7.808 7.808-7.808 7.808 1.97 1.97 7.808-7.808 7.808 7.808 1.97-1.97-7.808-7.808 7.808-7.808z"
      />
</symbol>
<symbol id="icon-menu" viewBox="0 0 32 32">
<path
        d="M6.4 11.734v-2.134h19.2v2.134h-19.2zM6.4 17.066h19.2v-2.133h-19.2v2.133zM6.4 22.4h19.2v-2.134h-19.2v2.134z"
      />
</symbol>
<symbol id='icon-vector' viewBox="0 0 28 16">
      <path
        d="M27.3461 12.2435C28.218 13.1028 28.218 14.4961 27.3461 15.3554C26.4743 16.2148 25.0608 16.2148 24.189 15.3554L12.4214 3.75643C11.5496 2.89709 11.5496 1.50384 12.4214 0.644499C13.2932 -0.214835 14.7067 -0.214835 15.5785 0.6445L27.3461 12.2435Z"
      />
      <path
        d="M3.81103 15.3555C2.9392 16.2148 1.52569 16.2148 0.653868 15.3555C-0.217956 14.4962 -0.217956 13.1029 0.653868 12.2436L12.4214 0.644499C13.2932 -0.214835 14.7067 -0.214835 15.5785 0.6445C16.4504 1.50384 16.4504 2.89715 15.5786 3.75649L3.81103 15.3555Z"
      />
</symbol>
<symbol id="icon-facebook" viewBox="0 0 16 32">
<path
        d="M10.394 32v-14.573h4.739l0.704-5.706h-5.443v-3.634c0-1.646 0.442-2.774 2.72-2.774h2.886v-5.087c-1.404-0.156-2.816-0.232-4.228-0.226-4.189 0-7.064 2.653-7.064 7.523v4.187h-4.708v5.706h4.718v14.584h5.676z"
      />
</symbol>
<symbol id="icon-instagram" viewBox="0 0 32 32">
<path
        d="M9.404 0.096c1.706-0.079 2.25-0.096 6.596-0.096s4.89 0.019 6.595 0.096c1.705 0.077 2.868 0.349 3.887 0.743 1.066 0.403 2.033 1.033 2.833 1.847 0.815 0.799 1.443 1.764 1.844 2.832 0.396 1.018 0.666 2.182 0.745 3.884 0.079 1.709 0.096 2.253 0.096 6.598 0 4.346-0.019 4.89-0.096 6.596-0.077 1.702-0.349 2.865-0.745 3.884-0.401 1.068-1.031 2.035-1.844 2.835-0.8 0.815-1.767 1.443-2.833 1.844-1.018 0.396-2.182 0.666-3.884 0.745-1.708 0.079-2.252 0.096-6.598 0.096s-4.89-0.019-6.596-0.096c-1.702-0.077-2.865-0.349-3.884-0.745-1.068-0.402-2.035-1.031-2.835-1.844-0.814-0.799-1.444-1.766-1.846-2.833-0.394-1.018-0.665-2.182-0.743-3.884-0.079-1.709-0.096-2.253-0.096-6.598 0-4.346 0.019-4.89 0.096-6.595s0.349-2.868 0.743-3.887c0.403-1.068 1.033-2.034 1.847-2.833 0.799-0.814 1.765-1.444 2.832-1.846 1.018-0.394 2.182-0.665 3.884-0.743h0.001zM22.465 2.976c-1.687-0.077-2.193-0.093-6.465-0.093s-4.778 0.016-6.465 0.093c-1.561 0.071-2.407 0.332-2.972 0.551-0.746 0.291-1.28 0.636-1.84 1.196-0.531 0.516-0.939 1.145-1.196 1.84-0.22 0.564-0.48 1.411-0.551 2.972-0.077 1.687-0.093 2.193-0.093 6.465s0.016 4.778 0.093 6.465c0.071 1.561 0.332 2.407 0.551 2.972 0.256 0.694 0.665 1.324 1.196 1.84 0.516 0.531 1.146 0.94 1.84 1.196 0.564 0.22 1.411 0.48 2.972 0.551 1.687 0.077 2.192 0.093 6.465 0.093s4.778-0.016 6.465-0.093c1.561-0.071 2.407-0.332 2.972-0.551 0.746-0.291 1.28-0.636 1.84-1.196 0.531-0.516 0.94-1.146 1.196-1.84 0.22-0.564 0.48-1.411 0.551-2.972 0.077-1.687 0.093-2.193 0.093-6.465s-0.016-4.778-0.093-6.465c-0.071-1.561-0.332-2.407-0.551-2.972-0.291-0.746-0.636-1.28-1.196-1.84-0.516-0.531-1.145-0.939-1.84-1.196-0.564-0.22-1.411-0.48-2.972-0.551zM13.956 20.932c1.141 0.475 2.412 0.539 3.596 0.181s2.206-1.115 2.893-2.143c0.687-1.028 0.996-2.262 0.873-3.493s-0.668-2.38-1.543-3.253c-0.558-0.558-1.233-0.985-1.976-1.251s-1.536-0.363-2.321-0.286-1.544 0.328-2.221 0.734c-0.677 0.406-1.255 0.957-1.694 1.613s-0.726 1.401-0.842 2.182c-0.116 0.781-0.057 1.577 0.172 2.332s0.622 1.45 1.152 2.035c0.53 0.585 1.183 1.045 1.912 1.347zM10.185 10.185c0.764-0.764 1.67-1.369 2.668-1.783s2.067-0.626 3.147-0.626 2.149 0.213 3.147 0.626c0.998 0.413 1.904 1.019 2.668 1.783s1.369 1.67 1.783 2.668c0.413 0.998 0.626 2.067 0.626 3.147s-0.213 2.149-0.626 3.147c-0.413 0.998-1.019 1.904-1.783 2.668-1.542 1.542-3.634 2.409-5.815 2.409s-4.273-0.866-5.815-2.409c-1.542-1.542-2.409-3.634-2.409-5.815s0.866-4.273 2.409-5.815zM26.048 9.001c0.189-0.178 0.341-0.393 0.446-0.631s0.161-0.495 0.165-0.755c0.004-0.26-0.045-0.518-0.142-0.759s-0.243-0.46-0.427-0.644c-0.184-0.184-0.403-0.329-0.644-0.427s-0.499-0.146-0.759-0.142c-0.26 0.004-0.517 0.060-0.755 0.165s-0.453 0.256-0.631 0.446c-0.347 0.368-0.537 0.857-0.53 1.363s0.212 0.989 0.569 1.347c0.358 0.358 0.841 0.562 1.347 0.569s0.995-0.183 1.363-0.53z"
      />
</symbol>
<symbol id="icon-linkdn" viewBox="0 0 32 32">
<path
        d="M7.164 32h-6.635v-21.365h6.635v21.365zM3.842 7.721c-2.121 0-3.842-1.758-3.842-3.879 0-1.019 0.405-1.996 1.125-2.717s1.698-1.125 2.717-1.125c1.019 0 1.996 0.405 2.717 1.125s1.125 1.698 1.125 2.717c0 2.121-1.721 3.879-3.842 3.879zM31.994 32h-6.62v-10.4c0-2.479-0.050-5.657-3.449-5.657-3.449 0-3.978 2.693-3.978 5.479v10.578h-6.628v-21.365h6.362v2.914h0.093c0.886-1.679 3.049-3.45 6.277-3.45 6.715 0 7.949 4.422 7.949 10.165v11.736h-0.006z"
      />
</symbol>
<symbol id="icon-mail" viewBox="0 0 40 32">
<path
        d="M36 32h-32c-1.061 0-2.078-0.421-2.828-1.172s-1.172-1.768-1.172-2.828v-24.174c0.045-1.030 0.486-2.004 1.231-2.717s1.737-1.11 2.769-1.109h32c1.061 0 2.078 0.421 2.828 1.172s1.172 1.768 1.172 2.828v24c0 1.061-0.421 2.078-1.172 2.828s-1.768 1.172-2.828 1.172zM4 7.736v20.264h32v-20.264l-16 10.664-16-10.664zM5.6 4l14.4 9.6 14.4-9.6h-28.8z"
      />
</symbol>
<symbol id="icon-phone" viewBox="0 0 32 32">
<path
        d="M30.604 5.067l-4.26-4.255c-0.52-0.52-1.216-0.812-1.952-0.812s-1.432 0.288-1.952 0.812l-4.588 4.579c-0.52 0.52-0.812 1.22-0.812 1.956 0 0.74 0.288 1.432 0.812 1.956l3.584 3.588c-0.816 1.902-1.99 3.63-3.456 5.091-1.468 1.476-3.184 2.64-5.088 3.464l-3.584-3.588c-0.52-0.52-1.216-0.812-1.952-0.812-0.363-0.001-0.723 0.070-1.058 0.209s-0.639 0.344-0.894 0.603l-4.592 4.579c-0.52 0.52-0.812 1.22-0.812 1.956 0 0.74 0.288 1.432 0.812 1.956l4.256 4.255c0.888 0.888 2.112 1.396 3.368 1.396 0.26 0 0.512-0.020 0.768-0.064 5.296-0.872 10.552-3.692 14.796-7.931 4.24-4.248 7.056-9.503 7.936-14.802 0.252-1.504-0.252-3.052-1.332-4.136zM29.1 8.727c-0.78 4.715-3.316 9.419-7.136 13.238s-8.52 6.355-13.236 7.135c-0.592 0.1-1.2-0.1-1.632-0.528l-4.18-4.179 4.432-4.435 4.828 4.835 0.864-0.32c2.62-0.963 4.999-2.484 6.972-4.458s3.494-4.353 4.456-6.973l0.32-0.864-4.832-4.827 4.432-4.435 4.18 4.179c0.432 0.432 0.632 1.040 0.532 1.632z"
      />
</symbol>
<symbol id="icon-twitter" viewBox="0 0 36 32">
<path
        d="M36 3.796c-1.324 0.641-2.746 1.075-4.241 1.271 1.543-1.009 2.697-2.598 3.247-4.469-1.449 0.941-3.036 1.604-4.69 1.959-1.112-1.299-2.586-2.16-4.192-2.449s-3.254 0.009-4.688 0.849c-1.435 0.84-2.576 2.174-3.246 3.796s-0.832 3.44-0.46 5.172c-2.937-0.161-5.81-0.996-8.433-2.45s-4.936-3.495-6.791-5.989c-0.634 1.196-0.999 2.583-0.999 4.060-0.001 1.33 0.299 2.639 0.872 3.812s1.402 2.173 2.413 2.911c-1.173-0.041-2.32-0.387-3.345-1.011v0.104c-0 1.865 0.59 3.672 1.67 5.116s2.583 2.434 4.255 2.803c-1.088 0.322-2.229 0.369-3.336 0.139 0.472 1.605 1.39 3.008 2.628 4.013s2.731 1.562 4.272 1.593c-2.616 2.246-5.847 3.464-9.174 3.459-0.589 0-1.178-0.038-1.763-0.113 3.376 2.374 7.306 3.633 11.32 3.628 13.588 0 21.016-12.305 21.016-22.977 0-0.347-0.008-0.697-0.022-1.044 1.445-1.143 2.692-2.557 3.683-4.178l0.003-0.005z"
      />
</symbol>
</defs>
</svg>
